<svg width="2286" height="1277" viewBox="0 0 2286 1277" fill="none" xmlns="http://www.w3.org/2000/svg">
<path d="M1972.52 603.52L2070.52 603.52C2140.12 603.52 2196.85 561.853 2216.52 541.02C2274.12 501.82 2279.52 407.353 2275.02 365.02C2254.62 237.42 2141.52 197.187 2087.52 193.02L1576.02 193.02L1576.02 140.52C1581.22 50.5201 1501.19 10.0201 1460.52 1.02011L1243.52 1.0201C1169.92 11.8201 1137.85 84.1868 1131.02 119.02L1131.02 201.52L0.520133 206.52L0.520128 320.02L1138.02 320.02L1138.02 972.02L9.5201 972.02L9.52009 1088.02L1138.02 1088.02L1138.02 1131.02C1140.82 1171.82 1153.19 1198.69 1159.02 1207.02C1185.82 1257.02 1244.52 1273.52 1270.52 1275.52L1451.52 1275.52C1479.12 1273.12 1511.35 1255.19 1524.02 1246.52C1580.42 1215.32 1589.85 1122.52 1587.52 1080.02L2115.52 1071.02C2130.72 1072.62 2180.52 1048.02 2203.52 1035.52C2284.72 970.72 2290.02 876.187 2282.52 837.02C2284.92 789.02 2230.85 729.02 2203.52 705.02C2152.72 667.42 2093.69 663.353 2070.52 666.02L1972.52 666.02C1927.72 643.62 1953.85 615.02 1972.52 603.52Z" fill="#3EC6F1" stroke="black"/>
</svg>
